<svg width="18" height="15" viewBox="0 0 18 15" fill="none" xmlns="http://www.w3.org/2000/svg">
<path fill-rule="evenodd" clip-rule="evenodd" d="M18 13.0998C18 13.6417 17.4801 14.081 16.8387 14.081L1.16129 14.081C0.519928 14.081 -6.78526e-08 13.6417 -4.37114e-08 13.0998C-1.95703e-08 12.5578 0.519928 12.1185 1.16129 12.1185L16.8387 12.1185C17.4801 12.1185 18 12.5578 18 13.0998Z" fill="#343C6A"/>
<path fill-rule="evenodd" clip-rule="evenodd" d="M18 7.21226C18 7.75419 17.5523 8.19351 17 8.19351L1 8.19351C0.447716 8.19351 -6.78525e-08 7.75419 -4.37114e-08 7.21226C-1.95703e-08 6.67034 0.447716 6.23102 1 6.23102L17 6.23102C17.5523 6.23102 18 6.67034 18 7.21226Z" fill="#343C6A"/>
<path fill-rule="evenodd" clip-rule="evenodd" d="M18 1.32481C18 1.86674 17.4801 2.30605 16.8387 2.30605L1.16129 2.30606C0.519928 2.30606 -6.78526e-08 1.86674 -4.37115e-08 1.32481C-1.95704e-08 0.782889 0.519928 0.343571 1.16129 0.343571L16.8387 0.343567C17.4801 0.343567 18 0.782884 18 1.32481Z" fill="#343C6A"/>
</svg>
